<?xml version="1.0" standalone="no"?>
<!DOCTYPE svg PUBLIC "-//W3C//DTD SVG 20010904//EN"
 "http://www.w3.org/TR/2001/REC-SVG-20010904/DTD/svg10.dtd">
<svg version="1.0" xmlns="http://www.w3.org/2000/svg"
 width="1500.000000pt" height="250.000000pt" viewBox="0 0 267.000000 178.000000"
 preserveAspectRatio="xMidYMid meet">

<g transform="translate(0.000000,178.000000) scale(0.100000,-0.100000)"
fill="#000000" stroke="none">
<path d="M1069 1680 c-154 -39 -281 -131 -367 -267 -37 -58 -45 -100 -21 -116
25 -16 46 -2 73 50 55 109 172 205 294 243 71 22 179 26 252 9 125 -29 250
-124 321 -244 27 -46 40 -60 58 -60 46 0 49 29 11 100 -61 116 -184 220 -313
265 -69 25 -245 36 -308 20z"/>
<path d="M1927 1258 c-12 -9 -18 -23 -15 -38 3 -21 11 -25 103 -40 199 -34
329 -135 398 -310 50 -129 44 -257 -18 -387 -60 -127 -189 -232 -320 -262 -34
-8 -275 -12 -755 -14 -651 -2 -708 -1 -749 16 -59 23 -61 23 -61 -22 l0 -40
78 -18 c70 -16 135 -18 767 -18 l690 0 75 23 c340 107 503 477 351 797 -82
174 -265 300 -461 320 -48 5 -70 3 -83 -7z"/>
<path d="M510 1190 c0 -27 4 -40 14 -40 30 0 35 55 6 70 -18 10 -20 8 -20 -30z"/>
<path d="M1516 1124 c-14 -13 -16 -56 -16 -310 0 -185 4 -303 10 -315 13 -24
65 -26 74 -3 3 9 6 63 6 120 0 114 10 147 55 182 19 16 25 29 25 61 l0 41 -36
-15 c-20 -8 -38 -15 -40 -15 -2 0 -4 55 -4 123 0 126 -6 147 -41 147 -10 0
-25 -7 -33 -16z"/>
<path d="M775 885 c-29 -28 -32 -61 -9 -86 13 -15 16 -43 15 -163 l-2 -146 25
-12 c22 -9 29 -8 46 7 18 16 20 31 20 142 0 124 0 125 29 154 32 31 71 38 114
18 43 -20 51 -46 55 -179 3 -100 7 -127 20 -137 21 -17 29 -16 52 7 18 18 20
33 20 141 0 120 0 121 29 150 33 33 75 38 120 14 40 -20 51 -61 51 -191 0
-103 2 -114 20 -124 27 -14 58 3 66 36 11 41 -1 247 -15 274 -19 35 -61 79
-93 96 -54 28 -172 12 -206 -29 -12 -14 -18 -13 -60 14 -37 23 -56 29 -101 28
-31 0 -65 -4 -76 -8 -11 -5 -30 -2 -45 6 -35 18 -47 16 -75 -12z"/>
</g>
</svg>
